<svg version="1.1" id="Layer_1" xmlns="http://www.w3.org/2000/svg" xmlns:xlink="http://www.w3.org/1999/xlink" x="0px" y="0px"
	 width="100%" viewBox="0 0 2817 1488" enable-background="new 0 0 2817 1488" xml:space="preserve">
<path fill="#000000" opacity="1.000000" stroke="none" 
	d="
M2818.000000,1002.000000 
	C2818.000000,1164.314941 2818.000000,1326.630005 2818.000000,1488.940918 
	C1879.000000,1488.936768 940.000000,1488.936768 1.000000,1488.936768 
	C1.000000,1425.547485 1.000000,1362.221436 1.402594,1298.427246 
	C2.189203,1298.630859 2.822401,1299.267700 2.921443,1299.979004 
	C7.437028,1332.407104 21.406631,1360.552124 42.684975,1384.985962 
	C59.931408,1404.790039 80.963799,1420.114624 104.069344,1432.503174 
	C131.175781,1447.036987 159.933685,1457.368286 189.676270,1464.913818 
	C218.334747,1472.184448 247.386887,1477.429565 276.867737,1480.010498 
	C297.288513,1481.798340 317.709778,1484.311401 338.168671,1484.755005 
	C366.433533,1485.367798 394.740662,1484.604126 423.016418,1483.898804 
	C437.225189,1483.544312 451.460052,1482.503906 465.584045,1480.900757 
	C485.409363,1478.650391 505.303192,1476.426758 524.878235,1472.679321 
	C556.208496,1466.681519 586.804749,1457.950439 616.327271,1445.483398 
	C645.854858,1433.014282 672.973755,1416.812988 696.842834,1395.490601 
	C714.635742,1379.596069 729.187805,1360.907715 740.544678,1339.870483 
	C755.145508,1312.824097 763.018433,1283.664185 764.759277,1253.193481 
	C766.339539,1225.533325 764.929871,1197.895020 758.034912,1170.751587 
	C747.107422,1127.733276 724.825439,1092.019165 689.892395,1064.596069 
	C659.361694,1040.628784 624.251892,1026.019043 587.037903,1015.989197 
	C549.710388,1005.928589 511.519196,1001.679565 473.101898,999.086975 
	C461.014557,998.271240 448.868134,998.067139 436.747925,998.045959 
	C378.418762,997.943848 320.088898,997.877563 261.760284,998.087158 
	C247.412643,998.138733 233.308685,997.033813 219.565979,992.917114 
	C203.451996,988.090027 188.511154,981.158630 178.429001,966.849548 
	C173.319305,959.597595 170.447021,951.547791 173.090683,942.575867 
	C175.782547,933.440125 182.387482,927.621765 190.477020,923.219788 
	C202.595184,916.625610 215.816513,913.726440 229.311966,912.134705 
	C236.348938,911.304688 243.698059,910.434448 250.586349,911.552734 
	C268.620911,914.480469 286.409210,918.906921 304.427277,921.959106 
	C324.183624,925.305725 344.173828,926.366699 364.200073,924.963074 
	C379.857605,923.865662 395.550171,922.866882 411.113647,920.917847 
	C437.500244,917.613342 462.749390,909.814880 486.941681,898.930176 
	C523.055298,882.681763 554.619507,860.151794 580.618286,829.985596 
	C597.924866,809.904785 612.036743,787.951355 622.762085,763.693787 
	C639.131104,726.672058 646.320557,687.800354 646.938782,647.554749 
	C647.040405,640.941406 646.565979,634.293762 645.945435,627.700806 
	C645.017883,617.845825 644.409302,607.877625 642.332520,598.244873 
	C641.067078,592.374939 642.578857,588.813660 646.897400,585.689392 
	C671.767395,567.697266 699.261414,562.028870 729.173157,568.673462 
	C735.686829,570.120300 741.952515,572.683289 749.000000,574.946655 
	C749.000000,572.780457 749.041016,570.994812 748.993408,569.211487 
	C748.674133,557.258118 748.313538,545.305847 748.009827,533.352173 
	C747.651123,519.233276 747.276306,505.114349 747.016602,490.993439 
	C746.628235,469.875397 746.389160,448.754578 745.978760,427.637024 
	C745.743225,415.515533 745.301697,403.397949 744.922424,391.279572 
	C744.903015,390.658783 744.595886,390.046967 744.271057,388.892059 
	C671.854736,391.844330 628.147705,433.468048 599.781921,495.679321 
	C599.108337,495.287842 598.904236,495.240692 598.830688,495.116333 
	C586.178345,473.734070 569.457336,455.788971 550.412659,440.187683 
	C531.816040,424.953430 511.223816,412.746368 489.141418,402.931671 
	C449.887054,385.484741 408.684723,377.440674 366.005615,376.079712 
	C358.736938,375.847870 351.424408,376.516449 344.150513,377.029755 
	C331.285675,377.937683 318.299866,378.206909 305.607574,380.251465 
	C281.969482,384.059143 258.793091,389.807831 236.386185,398.672760 
	C196.844086,414.316864 162.124008,436.772827 133.194778,468.175720 
	C114.063934,488.942413 98.764862,512.056763 87.038017,537.704041 
	C72.914612,568.592651 65.251236,601.125732 63.223660,634.813843 
	C61.758770,659.152954 62.606823,683.612305 67.147995,707.710449 
	C73.367554,740.715088 83.696556,772.262695 100.213791,801.731567 
	C111.863762,822.516602 126.818245,840.466187 144.141754,856.609619 
	C145.593079,857.962158 147.189499,859.158997 149.471008,861.052795 
	C146.511780,861.924805 144.659973,862.497681 142.793152,863.016479 
	C110.700905,871.935669 80.133057,883.940491 53.949711,905.372864 
	C37.337742,918.970581 24.907160,935.568787 18.694279,955.997681 
	C9.604645,985.885376 11.965343,1015.393982 26.250645,1043.280273 
	C38.336617,1066.873291 56.533070,1085.123901 80.311470,1096.863281 
	C94.492470,1103.864258 109.685196,1108.815918 123.591721,1114.357666 
	C119.944855,1116.272705 115.012428,1118.887451 110.058296,1121.460449 
	C81.539131,1136.273071 56.309219,1155.237671 35.511562,1179.932617 
	C19.456512,1198.996216 8.084604,1220.324951 2.912515,1244.827271 
	C2.738958,1245.649414 1.657998,1246.280029 1.000000,1247.000000 
	C1.000000,831.699280 1.000000,416.398529 1.000000,1.048905 
	C939.893738,1.048905 1878.787476,1.048905 2818.000000,1.048905 
	C2818.000000,332.368164 2818.000000,663.736450 2817.648926,995.893066 
	C2816.865479,995.332397 2816.220459,994.011780 2816.035889,992.629700 
	C2814.976318,984.707153 2814.511230,976.673279 2812.953857,968.854675 
	C2806.303223,935.466431 2788.239990,909.217896 2761.344238,888.943848 
	C2736.685059,870.356079 2708.440918,862.079773 2677.789795,862.147766 
	C2669.681885,862.165710 2661.525879,863.684937 2653.481934,865.045532 
	C2628.791504,869.221863 2607.349854,880.413025 2588.791504,896.878113 
	C2573.440186,910.497986 2561.849609,926.999939 2553.909912,946.081177 
	C2548.748291,958.486572 2545.247070,971.351807 2544.237549,984.592773 
	C2543.411621,995.428162 2544.408691,1006.437622 2545.064209,1017.341797 
	C2545.822266,1029.949585 2549.694336,1041.857422 2554.791016,1053.306885 
	C2562.979492,1071.701904 2574.204102,1087.861572 2589.543945,1101.229492 
	C2600.864746,1111.095093 2613.270508,1119.098755 2626.976807,1124.851929 
	C2649.452148,1134.285889 2672.932129,1136.932739 2697.192383,1134.110718 
	C2710.897217,1132.516602 2723.868408,1128.888916 2736.369385,1123.235229 
	C2754.802734,1114.898682 2770.750000,1103.335938 2783.831543,1087.761597 
	C2793.538818,1076.203491 2801.497803,1063.668701 2806.965820,1049.612061 
	C2812.556396,1035.242065 2816.175537,1020.446350 2816.088135,1004.886780 
	C2816.082764,1003.928162 2817.333740,1002.962463 2818.000000,1002.000000 
M1933.000000,908.500000 
	C1932.666748,817.721802 1932.453613,726.942749 1931.870117,636.166199 
	C1931.783081,622.637207 1930.676392,609.016052 1928.760620,595.620667 
	C1925.863281,575.360718 1921.052368,555.491699 1913.999268,536.171875 
	C1899.366455,496.089386 1875.599487,462.619965 1841.837280,436.565094 
	C1813.143921,414.421814 1780.339722,400.535614 1745.581909,391.104553 
	C1708.040649,380.918274 1669.547119,377.306183 1630.856323,376.202271 
	C1612.817627,375.687622 1594.715576,377.261932 1576.645996,377.984192 
	C1554.314209,378.876770 1532.340454,382.302368 1510.468994,386.854614 
	C1477.592041,393.697388 1446.154053,404.350830 1416.480835,420.173767 
	C1388.313477,435.193756 1363.228516,454.022858 1342.168701,478.200378 
	C1329.491089,492.754669 1318.652100,508.467712 1309.797363,525.555359 
	C1291.909668,560.074585 1284.200806,597.200562 1282.032959,635.694885 
	C1281.812012,639.617371 1282.003418,643.563049 1282.003418,647.639893 
	C1344.321045,647.639893 1405.876831,647.639893 1467.474121,647.639893 
	C1467.995850,639.375061 1468.617554,631.470886 1468.964478,623.554688 
	C1469.442383,612.652161 1472.416382,602.411072 1476.800049,592.525024 
	C1486.499268,570.651489 1503.161621,555.592773 1524.119995,545.009155 
	C1551.591797,531.136414 1581.344482,526.867981 1611.578857,526.233093 
	C1627.408691,525.900635 1643.338623,527.488586 1659.134521,529.086670 
	C1679.788086,531.176147 1699.789551,535.996338 1718.039673,546.512207 
	C1744.983521,562.037537 1755.401489,583.400085 1753.874390,612.628479 
	C1753.460083,620.558105 1750.113037,627.464417 1744.319214,633.316956 
	C1735.845947,641.875977 1725.156250,646.240417 1714.197388,649.984314 
	C1687.705078,659.034546 1660.091553,663.239624 1632.624878,667.893005 
	C1610.027832,671.721375 1587.281372,674.660034 1564.649536,678.293884 
	C1545.935059,681.298828 1527.143799,684.074768 1508.650757,688.150757 
	C1481.285156,694.182251 1453.871338,700.307861 1426.990234,708.148987 
	C1389.288940,719.146240 1353.690430,734.928955 1323.387451,760.823242 
	C1308.016724,773.957764 1294.796753,788.903870 1284.819214,806.538391 
	C1267.304565,837.494019 1260.252319,871.278198 1259.176758,906.386230 
	C1258.756958,920.091003 1259.913330,933.891418 1261.077026,947.586670 
	C1262.941528,969.529968 1269.255493,990.407104 1278.729858,1010.187073 
	C1289.616333,1032.915771 1304.238770,1052.932617 1323.173706,1069.870728 
	C1337.210571,1082.427490 1352.367065,1093.189697 1368.956055,1101.935181 
	C1390.418579,1113.249878 1412.975952,1121.936646 1436.858398,1126.258057 
	C1457.118286,1129.923950 1477.564331,1133.509155 1498.066040,1134.648926 
	C1523.358032,1136.055176 1548.744263,1135.377075 1573.997559,1131.223022 
	C1599.954956,1126.953125 1624.864746,1119.758667 1648.635498,1108.652344 
	C1665.928711,1100.572510 1681.983887,1090.368408 1696.885254,1078.454590 
	C1712.473267,1065.991821 1726.501099,1051.936401 1738.583496,1035.999512 
	C1743.428345,1029.609009 1748.286621,1023.228821 1754.014038,1015.692444 
	C1754.014038,1049.125000 1754.014038,1081.283203 1754.014038,1113.662231 
	C1813.942505,1113.662231 1873.165161,1113.662231 1933.000000,1113.662231 
	C1933.000000,1045.384155 1933.000000,977.442078 1933.000000,908.500000 
M1971.500000,389.000000 
	C1962.773560,389.000000 1954.047119,389.000000 1944.734863,389.000000 
	C1945.535156,391.690002 1945.939575,393.443115 1946.570557,395.110565 
	C1955.688965,419.212158 1964.845459,443.299316 1973.976929,467.395935 
	C1983.576172,492.727631 1993.129639,518.076721 2002.755493,543.398315 
	C2015.082397,575.825500 2027.491455,608.221436 2039.808960,640.652222 
	C2050.131104,667.829407 2060.336182,695.051086 2070.658936,722.227966 
	C2082.742432,754.039551 2094.938232,785.808472 2107.009766,817.624512 
	C2118.553955,848.050171 2129.946289,878.533386 2141.506348,908.952881 
	C2153.594727,940.762573 2165.841553,972.512085 2177.949463,1004.314392 
	C2190.351562,1036.888794 2202.725342,1069.474121 2214.903809,1102.132080 
	C2215.782715,1104.489624 2215.645264,1107.713379 2214.815430,1110.135376 
	C2211.496826,1119.821045 2207.798340,1129.380127 2204.093994,1138.929077 
	C2195.407959,1161.317017 2186.166748,1183.444702 2171.961426,1203.061157 
	C2161.254639,1217.846924 2147.598145,1228.676270 2129.859131,1233.896851 
	C2114.000732,1238.563843 2097.625488,1239.623169 2081.290039,1239.873291 
	C2051.964600,1240.322266 2022.627319,1240.000000 1993.294922,1240.000000 
	C1991.364624,1240.000000 1989.434326,1240.000000 1987.370605,1240.000000 
	C1987.370605,1296.001465 1987.370605,1351.227661 1987.370605,1406.703857 
	C1989.187134,1406.817017 1990.653809,1407.012695 1992.116211,1406.984253 
	C2038.518677,1406.084717 2084.988037,1409.197998 2131.326904,1404.933228 
	C2145.448486,1403.633423 2159.619385,1402.142700 2173.535645,1399.512085 
	C2193.172119,1395.800415 2212.325195,1390.227661 2230.787842,1382.243896 
	C2253.802246,1372.291748 2274.744629,1359.242432 2293.138672,1342.268921 
	C2309.893066,1326.808472 2324.053955,1309.136230 2336.481689,1290.010376 
	C2350.879639,1267.852905 2362.638428,1244.314453 2372.752930,1220.007690 
	C2381.062012,1200.040039 2388.468750,1179.679199 2395.747314,1159.304077 
	C2411.699219,1114.648560 2427.281982,1069.861328 2443.082764,1025.151733 
	C2452.277100,999.135193 2461.651367,973.182251 2470.854248,947.168701 
	C2486.834717,901.996155 2502.729248,856.793152 2518.692383,811.614380 
	C2528.049805,785.130066 2537.523438,758.686768 2546.848389,732.191162 
	C2561.329590,691.045349 2575.658691,649.845886 2590.182861,608.715271 
	C2604.871826,567.117188 2619.719482,525.574890 2634.499512,484.008881 
	C2641.917480,463.147308 2649.385498,442.303253 2656.741699,421.419983 
	C2660.466553,410.845795 2663.992920,400.201813 2667.706543,389.302582 
	C2666.138672,389.168945 2665.161133,389.012909 2664.183350,389.012726 
	C2602.185303,389.001038 2540.187500,389.025330 2478.189453,388.937531 
	C2474.858154,388.932831 2473.625488,390.227264 2472.768066,393.265991 
	C2470.347412,401.844025 2467.605225,410.332489 2464.925293,418.835907 
	C2457.130127,443.570160 2449.294922,468.291656 2441.492188,493.023376 
	C2429.265625,531.776123 2417.062500,570.536255 2404.830566,609.287170 
	C2397.073975,633.859924 2389.277344,658.420105 2381.508301,682.988953 
	C2368.907715,722.836853 2356.313232,762.686646 2343.719238,802.536621 
	C2337.995117,820.648987 2332.302979,838.771545 2326.548096,856.874023 
	C2323.518311,866.403564 2320.384033,875.899963 2316.900635,886.631897 
	C2311.952393,872.302979 2307.418457,859.280701 2302.956055,846.233948 
	C2289.905762,808.076172 2276.899658,769.903259 2263.845947,731.746643 
	C2250.899658,693.902710 2237.908691,656.073853 2224.951904,618.233459 
	C2211.459717,578.829285 2197.948486,539.431702 2184.513428,500.008026 
	C2172.516846,464.805573 2160.541748,429.595306 2148.762695,394.319824 
	C2147.359131,390.117096 2145.376221,388.879913 2140.994141,388.892578 
	C2084.829834,389.055298 2028.664795,389.000000 1971.500000,389.000000 
M900.500000,1114.000000 
	C939.561768,1114.000000 978.623535,1114.000000 1018.000000,1114.000000 
	C1018.000000,1110.878906 1017.995056,1108.722900 1018.000671,1106.567017 
	C1018.333069,980.305542 1018.615662,854.043945 1019.081726,727.782959 
	C1019.126343,715.709595 1020.177307,703.630859 1021.005493,691.571411 
	C1022.485107,670.024841 1026.728394,649.034851 1035.133179,629.082031 
	C1046.684204,601.659912 1065.923706,582.075134 1094.269653,571.799988 
	C1116.349854,563.796082 1139.241943,561.250122 1162.485352,561.046265 
	C1186.312012,560.837402 1210.141846,561.006409 1233.970337,560.987793 
	C1235.884766,560.986328 1237.798828,560.812256 1239.546631,560.726562 
	C1239.546631,501.484772 1239.546631,442.931824 1239.546631,384.938629 
	C1223.823975,384.938629 1208.489380,384.019440 1193.316406,385.191254 
	C1177.418213,386.419128 1161.435791,388.621948 1145.912598,392.220795 
	C1110.520386,400.426056 1079.263550,416.363708 1055.010254,444.396820 
	C1043.078979,458.187592 1033.742676,473.451630 1027.067139,490.356262 
	C1024.019165,498.074890 1021.355347,505.945129 1018.517273,513.746582 
	C1018.236938,513.707336 1017.956665,513.668091 1017.676392,513.628906 
	C1017.676392,472.226868 1017.676392,430.824860 1017.676392,389.401031 
	C955.588928,389.401031 894.036804,389.401031 832.334229,389.401031 
	C832.334229,630.994934 832.334229,872.187683 832.334229,1114.000000 
	C854.941833,1114.000000 877.220947,1114.000000 900.500000,1114.000000 
M1695.505615,190.000000 
	C1701.454956,190.000000 1707.404419,190.000000 1713.904785,190.000000 
	C1713.904785,147.346985 1713.904785,105.320503 1713.904785,61.835457 
	C1715.599121,64.222054 1716.458496,65.352013 1717.234253,66.536819 
	C1743.396240,106.494240 1769.538940,146.464310 1795.751709,186.388382 
	C1796.676758,187.797363 1798.257324,189.736847 1799.577515,189.772995 
	C1809.844360,190.054108 1820.122437,189.928284 1830.505737,189.928284 
	C1830.505737,130.319641 1830.505737,71.317253 1830.505737,12.474815 
	C1819.443848,12.474815 1808.882202,12.474815 1797.807617,12.474815 
	C1797.807617,51.310932 1797.807617,89.675247 1797.807617,128.039566 
	C1794.576538,124.762512 1792.398926,121.145233 1790.083374,117.618385 
	C1769.494263,86.257439 1748.480347,55.163925 1728.532593,23.400639 
	C1722.976807,14.554172 1717.237549,10.617778 1706.853027,11.807101 
	C1698.522095,12.761222 1689.994873,12.000000 1681.333618,12.000000 
	C1681.333618,71.603363 1681.333618,130.491318 1681.333618,190.000000 
	C1685.936890,190.000000 1690.223511,190.000000 1695.505615,190.000000 
M2799.243652,189.994629 
	C2804.089355,190.465652 2802.972656,186.890656 2802.974365,184.298279 
	C2803.007812,128.803070 2803.002441,73.307838 2802.988770,17.812601 
	C2802.988281,16.040377 2802.820068,14.268193 2802.723145,12.365105 
	C2791.675537,12.365105 2781.115234,12.365105 2769.973633,12.365105 
	C2769.973633,51.061508 2769.973633,89.398361 2769.973633,128.676025 
	C2768.613770,127.126587 2767.878174,126.465767 2767.354492,125.666275 
	C2743.354980,89.033005 2719.336426,52.412064 2695.467041,15.694187 
	C2693.674072,12.935995 2691.781006,11.882340 2688.616455,11.948652 
	C2680.953613,12.109220 2673.285645,12.000257 2665.619629,12.000020 
	C2661.870361,11.999904 2658.121338,12.000000 2654.428711,12.000000 
	C2654.428711,71.789742 2654.428711,130.680710 2654.428711,189.586853 
	C2665.423096,189.586853 2675.983887,189.586853 2687.140137,189.586853 
	C2687.140137,147.529205 2687.140137,105.880257 2687.140137,62.801064 
	C2694.324951,73.732094 2700.698486,83.366158 2707.009033,93.041397 
	C2727.051270,123.770210 2747.101562,154.493713 2767.051514,185.282288 
	C2769.214111,188.619308 2771.500244,190.372726 2775.804932,190.121185 
	C2783.278809,189.684448 2790.796631,189.999237 2799.243652,189.994629 
M2467.991211,34.541092 
	C2464.293457,39.795303 2459.983154,44.725254 2457.001221,50.358341 
	C2441.989258,78.718277 2441.056396,108.296593 2451.064209,138.297516 
	C2457.914307,158.832458 2471.396240,174.160645 2490.802002,183.871490 
	C2508.032227,192.493515 2526.338623,194.576950 2545.374512,192.068192 
	C2574.904053,188.176407 2597.022461,173.562408 2610.448975,146.871475 
	C2618.009766,131.840912 2620.409424,115.603073 2620.150146,98.717262 
	C2619.864990,80.093719 2616.154053,62.623775 2606.292236,46.727337 
	C2597.609863,32.731800 2585.918213,22.113197 2570.542725,15.736297 
	C2555.614502,9.544951 2540.311035,7.419028 2524.083252,8.800750 
	C2502.344727,10.651666 2483.926270,18.804247 2467.991211,34.541092 
M1333.980225,18.437271 
	C1331.808350,19.636038 1329.531250,20.678429 1327.480469,22.057314 
	C1302.140015,39.096306 1290.972778,63.902679 1289.096924,93.454529 
	C1288.223633,107.214249 1289.529541,120.829239 1293.814697,134.158279 
	C1300.713379,155.616547 1313.249146,172.410965 1333.275269,183.020264 
	C1350.785889,192.296829 1369.533936,194.666855 1389.131714,192.084076 
	C1423.990356,187.490036 1447.360107,168.735840 1459.103638,135.704330 
	C1465.673218,117.226082 1466.018799,98.120071 1462.768921,79.005241 
	C1460.211670,63.963974 1454.308350,50.085075 1444.605835,38.229008 
	C1427.615112,17.467064 1404.765503,8.639556 1378.611572,8.148480 
	C1363.310791,7.861190 1348.383911,10.828580 1333.980225,18.437271 
M1971.454834,16.992556 
	C1961.562622,15.328374 1951.707520,12.558985 1941.770752,12.226260 
	C1919.969727,11.496284 1898.127319,12.000063 1876.301880,12.000093 
	C1874.371460,12.000095 1872.441040,12.000093 1870.346924,12.000093 
	C1870.346924,71.647789 1870.346924,130.526978 1870.346924,189.523132 
	C1871.288696,189.709229 1871.920654,189.949692 1872.549438,189.941635 
	C1895.161743,189.651474 1917.773071,189.253601 1940.386108,189.056854 
	C1956.227417,188.919006 1971.126831,185.349792 1985.175293,177.970871 
	C2003.269653,168.466995 2013.896973,153.203293 2020.037720,134.161346 
	C2024.565552,120.121483 2024.794922,105.661362 2023.752441,91.320915 
	C2023.007446,81.072525 2021.049561,70.618500 2017.722046,60.911140 
	C2010.150391,38.821461 1994.285400,24.580011 1971.454834,16.992556 
M2080.851807,70.240120 
	C2079.190186,74.554398 2077.507324,78.860710 2075.870117,83.184235 
	C2066.456299,108.044373 2057.031006,132.900269 2047.657104,157.775406 
	C2043.713867,168.239059 2039.886475,178.746262 2035.829102,189.712921 
	C2047.794312,189.712921 2059.046875,189.712921 2070.561035,189.712921 
	C2075.881836,175.125687 2081.258301,160.587021 2086.446045,145.981445 
	C2087.399902,143.295990 2088.481689,141.911667 2091.635986,141.934494 
	C2110.791016,142.073120 2129.947998,142.049957 2149.103516,141.950531 
	C2151.895752,141.936050 2153.161621,142.928299 2154.081543,145.559036 
	C2158.224609,157.404938 2162.595703,169.171158 2166.893799,180.962814 
	C2170.188477,190.002182 2170.194580,190.000000 2179.800049,190.000000 
	C2188.709229,190.000015 2197.618652,190.000000 2206.958496,190.000000 
	C2206.312744,187.808029 2205.975098,186.379395 2205.475830,185.009766 
	C2195.632568,158.019165 2185.755615,131.040771 2175.916504,104.048737 
	C2165.115723,74.418839 2154.380859,44.764744 2143.450928,15.182622 
	C2142.946045,13.816471 2140.833496,12.175097 2139.437500,12.144749 
	C2128.115723,11.898625 2116.784668,11.917817 2105.461426,12.129382 
	C2104.164062,12.153624 2102.199951,13.587395 2101.722412,14.822800 
	C2094.698486,32.993649 2087.874268,51.241657 2080.851807,70.240120 
M1497.000122,122.432907 
	C1498.016479,130.112183 1498.262329,137.991425 1500.193726,145.433243 
	C1505.983643,167.742233 1519.576660,182.788574 1542.286255,189.271179 
	C1559.106567,194.072662 1576.023071,194.429626 1592.839233,190.727997 
	C1609.608154,187.036774 1623.059082,178.128418 1632.194702,162.883713 
	C1640.171387,149.573227 1642.553223,134.947479 1642.811279,120.119286 
	C1643.405396,85.970146 1643.004272,51.803612 1642.986938,17.644146 
	C1642.986084,15.885849 1642.797241,14.127645 1642.698853,12.423047 
	C1631.221313,12.423047 1620.328125,12.423047 1609.000000,12.423047 
	C1609.000000,14.816895 1609.000000,16.790245 1609.000000,18.763596 
	C1609.000000,53.256336 1609.036011,87.749161 1608.952271,122.241692 
	C1608.942261,126.357208 1608.701294,130.563080 1607.829224,134.566238 
	C1606.130737,142.363235 1603.559204,149.751755 1596.897827,155.097076 
	C1587.378296,162.735794 1576.239014,163.902328 1564.900391,162.792755 
	C1554.655884,161.790268 1545.277710,158.099106 1539.282959,148.775833 
	C1534.509521,141.351898 1532.088867,133.139816 1532.055664,124.413605 
	C1531.921509,89.088219 1532.000000,53.762024 1532.000000,18.436129 
	C1532.000000,16.492483 1532.000000,14.548838 1532.000000,12.319714 
	C1520.099976,12.319714 1508.874268,12.319714 1497.000000,12.319714 
	C1497.000000,48.906918 1497.000000,85.178268 1497.000122,122.432907 
M1148.000000,80.500000 
	C1148.000000,116.896286 1148.000000,153.292572 1148.000000,189.529083 
	C1160.210327,189.529083 1171.437866,189.529083 1183.280029,189.529083 
	C1183.280029,165.498108 1183.280029,141.932495 1183.280029,117.754974 
	C1205.466309,117.754974 1227.033081,117.754974 1248.579956,117.754974 
	C1248.579956,107.561752 1248.579956,97.999664 1248.579956,87.821457 
	C1226.600952,87.821457 1205.035522,87.821457 1183.386230,87.821457 
	C1183.386230,72.298195 1183.386230,57.404789 1183.386230,41.890190 
	C1212.662598,41.890190 1241.560181,41.890190 1270.647949,41.890190 
	C1270.647949,31.702208 1270.647949,22.142090 1270.647949,12.332221 
	C1229.738281,12.332221 1189.180908,12.332221 1148.000000,12.332221 
	C1148.000000,34.939110 1148.000000,57.219555 1148.000000,80.500000 
M2336.378906,12.000033 
	C2291.115479,12.000033 2245.852295,12.000033 2200.331055,12.000033 
	C2200.331055,22.256001 2200.331055,31.815451 2200.331055,42.178589 
	C2218.333740,42.178589 2236.019531,42.178589 2254.304932,42.178589 
	C2254.304932,91.869667 2254.304932,140.758698 2254.304932,189.553101 
	C2266.160156,189.553101 2277.387451,189.553101 2289.224365,189.553101 
	C2289.224365,140.218933 2289.224365,91.328384 2289.224365,41.819302 
	C2307.400879,41.819302 2324.968750,41.819302 2342.613281,41.819302 
	C2342.613281,31.630564 2342.613281,22.070793 2342.613281,12.000207 
	C2340.599609,12.000207 2338.969727,12.000207 2336.378906,12.000033 
M2375.000000,73.500000 
	C2375.000000,112.212265 2375.000000,150.924530 2375.000000,189.565338 
	C2387.144775,189.565338 2398.367188,189.565338 2409.629639,189.565338 
	C2409.629639,130.268616 2409.629639,71.407310 2409.629639,12.346189 
	C2398.035889,12.346189 2386.814697,12.346189 2375.000000,12.346189 
	C2375.000000,32.624340 2375.000000,52.562172 2375.000000,73.500000 
z"/>
<path fill="#474F62" opacity="1.000000" stroke="none" 
	d="
M1.000000,1247.468628 
	C1.657998,1246.280029 2.738958,1245.649414 2.912515,1244.827271 
	C8.084604,1220.324951 19.456512,1198.996216 35.511562,1179.932617 
	C56.309219,1155.237671 81.539131,1136.273071 110.058296,1121.460449 
	C115.012428,1118.887451 119.944855,1116.272705 123.591721,1114.357666 
	C109.685196,1108.815918 94.492470,1103.864258 80.311470,1096.863281 
	C56.533070,1085.123901 38.336617,1066.873291 26.250645,1043.280273 
	C11.965343,1015.393982 9.604645,985.885376 18.694279,955.997681 
	C24.907160,935.568787 37.337742,918.970581 53.949711,905.372864 
	C80.133057,883.940491 110.700905,871.935669 142.793152,863.016479 
	C144.659973,862.497681 146.511780,861.924805 149.471008,861.052795 
	C147.189499,859.158997 145.593079,857.962158 144.141754,856.609619 
	C126.818245,840.466187 111.863762,822.516602 100.213791,801.731567 
	C83.696556,772.262695 73.367554,740.715088 67.147995,707.710449 
	C62.606823,683.612305 61.758770,659.152954 63.223660,634.813843 
	C65.251236,601.125732 72.914612,568.592651 87.038017,537.704041 
	C98.764862,512.056763 114.063934,488.942413 133.194778,468.175720 
	C162.124008,436.772827 196.844086,414.316864 236.386185,398.672760 
	C258.793091,389.807831 281.969482,384.059143 305.607574,380.251465 
	C318.299866,378.206909 331.285675,377.937683 344.150513,377.029755 
	C351.424408,376.516449 358.736938,375.847870 366.005615,376.079712 
	C408.684723,377.440674 449.887054,385.484741 489.141418,402.931671 
	C511.223816,412.746368 531.816040,424.953430 550.412659,440.187683 
	C569.457336,455.788971 586.178345,473.734070 598.830688,495.116333 
	C598.904236,495.240692 599.108337,495.287842 599.781921,495.679321 
	C628.147705,433.468048 671.854736,391.844330 744.271057,388.892059 
	C744.595886,390.046967 744.903015,390.658783 744.922424,391.279572 
	C745.301697,403.397949 745.743225,415.515533 745.978760,427.637024 
	C746.389160,448.754578 746.628235,469.875397 747.016602,490.993439 
	C747.276306,505.114349 747.651123,519.233276 748.009827,533.352173 
	C748.313538,545.305847 748.674133,557.258118 748.993408,569.211487 
	C749.041016,570.994812 749.000000,572.780457 749.000000,574.946655 
	C741.952515,572.683289 735.686829,570.120300 729.173157,568.673462 
	C699.261414,562.028870 671.767395,567.697266 646.897400,585.689392 
	C642.578857,588.813660 641.067078,592.374939 642.332520,598.244873 
	C644.409302,607.877625 645.017883,617.845825 645.945435,627.700806 
	C646.565979,634.293762 647.040405,640.941406 646.938782,647.554749 
	C646.320557,687.800354 639.131104,726.672058 622.762085,763.693787 
	C612.036743,787.951355 597.924866,809.904785 580.618286,829.985596 
	C554.619507,860.151794 523.055298,882.681763 486.941681,898.930176 
	C462.749390,909.814880 437.500244,917.613342 411.113647,920.917847 
	C395.550171,922.866882 379.857605,923.865662 364.200073,924.963074 
	C344.173828,926.366699 324.183624,925.305725 304.427277,921.959106 
	C286.409210,918.906921 268.620911,914.480469 250.586349,911.552734 
	C243.698059,910.434448 236.348938,911.304688 229.311966,912.134705 
	C215.816513,913.726440 202.595184,916.625610 190.477020,923.219788 
	C182.387482,927.621765 175.782547,933.440125 173.090683,942.575867 
	C170.447021,951.547791 173.319305,959.597595 178.429001,966.849548 
	C188.511154,981.158630 203.451996,988.090027 219.565979,992.917114 
	C233.308685,997.033813 247.412643,998.138733 261.760284,998.087158 
	C320.088898,997.877563 378.418762,997.943848 436.747925,998.045959 
	C448.868134,998.067139 461.014557,998.271240 473.101898,999.086975 
	C511.519196,1001.679565 549.710388,1005.928589 587.037903,1015.989197 
	C624.251892,1026.019043 659.361694,1040.628784 689.892395,1064.596069 
	C724.825439,1092.019165 747.107422,1127.733276 758.034912,1170.751587 
	C764.929871,1197.895020 766.339539,1225.533325 764.759277,1253.193481 
	C763.018433,1283.664185 755.145508,1312.824097 740.544678,1339.870483 
	C729.187805,1360.907715 714.635742,1379.596069 696.842834,1395.490601 
	C672.973755,1416.812988 645.854858,1433.014282 616.327271,1445.483398 
	C586.804749,1457.950439 556.208496,1466.681519 524.878235,1472.679321 
	C505.303192,1476.426758 485.409363,1478.650391 465.584045,1480.900757 
	C451.460052,1482.503906 437.225189,1483.544312 423.016418,1483.898804 
	C394.740662,1484.604126 366.433533,1485.367798 338.168671,1484.755005 
	C317.709778,1484.311401 297.288513,1481.798340 276.867737,1480.010498 
	C247.386887,1477.429565 218.334747,1472.184448 189.676270,1464.913818 
	C159.933685,1457.368286 131.175781,1447.036987 104.069344,1432.503174 
	C80.963799,1420.114624 59.931408,1404.790039 42.684975,1384.985962 
	C21.406631,1360.552124 7.437028,1332.407104 2.921443,1299.979004 
	C2.822401,1299.267700 2.189203,1298.630859 1.402594,1297.979614 
	C1.000000,1281.312378 1.000000,1264.624878 1.000000,1247.468628 
M603.010925,1270.435669 
	C606.199890,1260.585815 607.336365,1250.636597 606.136902,1240.219360 
	C604.944580,1229.863892 602.443115,1219.984497 597.315979,1211.027954 
	C589.257202,1196.950317 577.090698,1187.066895 562.713806,1179.955811 
	C546.005371,1171.691528 528.340088,1166.152222 509.840149,1163.927002 
	C487.718781,1161.266113 465.543396,1157.690186 443.343781,1157.312622 
	C387.696198,1156.366333 332.021790,1156.998657 276.358124,1157.007690 
	C274.862640,1157.007935 273.310913,1156.882568 271.879974,1157.218628 
	C243.891174,1163.790894 216.743057,1172.386353 193.280609,1189.883789 
	C177.142883,1201.918823 165.304550,1216.975220 160.197891,1236.747192 
	C153.938522,1260.981934 159.471619,1282.077026 177.850861,1299.248169 
	C191.714798,1312.200684 208.323273,1320.693359 226.050964,1327.107788 
	C251.954330,1336.480469 278.667114,1342.355835 306.050781,1344.980347 
	C326.618896,1346.951782 347.221069,1349.265503 367.846985,1349.742188 
	C389.060211,1350.232544 410.357269,1349.237427 431.548889,1347.845459 
	C448.649811,1346.722168 465.727448,1344.553589 482.674927,1341.938232 
	C512.266113,1337.371826 540.727173,1329.042725 566.456543,1313.161865 
	C582.900330,1303.012329 596.019958,1289.791382 603.010925,1270.435669 
M315.619171,521.058044 
	C294.501556,527.427246 275.767883,538.041077 260.246490,553.700012 
	C229.367447,584.852600 216.215424,622.563293 219.930145,666.198853 
	C222.239868,693.330322 231.672333,717.692444 248.935364,738.812805 
	C273.459839,768.816895 305.947021,784.015198 343.850525,787.721863 
	C355.065857,788.818604 366.736969,787.499512 377.967377,785.776428 
	C411.822693,780.581848 440.441254,765.366455 462.278900,738.603333 
	C488.638885,706.297852 495.132721,668.741394 489.422760,628.623779 
	C485.466614,600.828308 473.304047,576.537476 453.535706,556.472534 
	C431.011810,533.610779 403.778503,520.226501 371.644623,516.912720 
	C352.947815,514.984680 334.530640,515.517639 315.619171,521.058044 
z"/>
<path fill="#B3B6B7" opacity="1.000000" stroke="none" 
	d="
M2818.000000,1001.571533 
	C2817.333740,1002.962463 2816.082764,1003.928162 2816.088135,1004.886780 
	C2816.175537,1020.446350 2812.556396,1035.242065 2806.965820,1049.612061 
	C2801.497803,1063.668701 2793.538818,1076.203491 2783.831543,1087.761597 
	C2770.750000,1103.335938 2754.802734,1114.898682 2736.369385,1123.235229 
	C2723.868408,1128.888916 2710.897217,1132.516602 2697.192383,1134.110718 
	C2672.932129,1136.932739 2649.452148,1134.285889 2626.976807,1124.851929 
	C2613.270508,1119.098755 2600.864746,1111.095093 2589.543945,1101.229492 
	C2574.204102,1087.861572 2562.979492,1071.701904 2554.791016,1053.306885 
	C2549.694336,1041.857422 2545.822266,1029.949585 2545.064209,1017.341797 
	C2544.408691,1006.437622 2543.411621,995.428162 2544.237549,984.592773 
	C2545.247070,971.351807 2548.748291,958.486572 2553.909912,946.081177 
	C2561.849609,926.999939 2573.440186,910.497986 2588.791504,896.878113 
	C2607.349854,880.413025 2628.791504,869.221863 2653.481934,865.045532 
	C2661.525879,863.684937 2669.681885,862.165710 2677.789795,862.147766 
	C2708.440918,862.079773 2736.685059,870.356079 2761.344238,888.943848 
	C2788.239990,909.217896 2806.303223,935.466431 2812.953857,968.854675 
	C2814.511230,976.673279 2814.976318,984.707153 2816.035889,992.629700 
	C2816.220459,994.011780 2816.865479,995.332397 2817.648926,996.340698 
	C2818.000000,997.714355 2818.000000,999.428711 2818.000000,1001.571533 
z"/>
<path fill="#474F62" opacity="1.000000" stroke="none" 
	d="
M1933.000000,909.000000 
	C1933.000000,977.442078 1933.000000,1045.384155 1933.000000,1113.662231 
	C1873.165161,1113.662231 1813.942505,1113.662231 1754.014038,1113.662231 
	C1754.014038,1081.283203 1754.014038,1049.125000 1754.014038,1015.692444 
	C1748.286621,1023.228821 1743.428345,1029.609009 1738.583496,1035.999512 
	C1726.501099,1051.936401 1712.473267,1065.991821 1696.885254,1078.454590 
	C1681.983887,1090.368408 1665.928711,1100.572510 1648.635498,1108.652344 
	C1624.864746,1119.758667 1599.954956,1126.953125 1573.997559,1131.223022 
	C1548.744263,1135.377075 1523.358032,1136.055176 1498.066040,1134.648926 
	C1477.564331,1133.509155 1457.118286,1129.923950 1436.858398,1126.258057 
	C1412.975952,1121.936646 1390.418579,1113.249878 1368.956055,1101.935181 
	C1352.367065,1093.189697 1337.210571,1082.427490 1323.173706,1069.870728 
	C1304.238770,1052.932617 1289.616333,1032.915771 1278.729858,1010.187073 
	C1269.255493,990.407104 1262.941528,969.529968 1261.077026,947.586670 
	C1259.913330,933.891418 1258.756958,920.091003 1259.176758,906.386230 
	C1260.252319,871.278198 1267.304565,837.494019 1284.819214,806.538391 
	C1294.796753,788.903870 1308.016724,773.957764 1323.387451,760.823242 
	C1353.690430,734.928955 1389.288940,719.146240 1426.990234,708.148987 
	C1453.871338,700.307861 1481.285156,694.182251 1508.650757,688.150757 
	C1527.143799,684.074768 1545.935059,681.298828 1564.649536,678.293884 
	C1587.281372,674.660034 1610.027832,671.721375 1632.624878,667.893005 
	C1660.091553,663.239624 1687.705078,659.034546 1714.197388,649.984314 
	C1725.156250,646.240417 1735.845947,641.875977 1744.319214,633.316956 
	C1750.113037,627.464417 1753.460083,620.558105 1753.874390,612.628479 
	C1755.401489,583.400085 1744.983521,562.037537 1718.039673,546.512207 
	C1699.789551,535.996338 1679.788086,531.176147 1659.134521,529.086670 
	C1643.338623,527.488586 1627.408691,525.900635 1611.578857,526.233093 
	C1581.344482,526.867981 1551.591797,531.136414 1524.119995,545.009155 
	C1503.161621,555.592773 1486.499268,570.651489 1476.800049,592.525024 
	C1472.416382,602.411072 1469.442383,612.652161 1468.964478,623.554688 
	C1468.617554,631.470886 1467.995850,639.375061 1467.474121,647.639893 
	C1405.876831,647.639893 1344.321045,647.639893 1282.003418,647.639893 
	C1282.003418,643.563049 1281.812012,639.617371 1282.032959,635.694885 
	C1284.200806,597.200562 1291.909668,560.074585 1309.797363,525.555359 
	C1318.652100,508.467712 1329.491089,492.754669 1342.168701,478.200378 
	C1363.228516,454.022858 1388.313477,435.193756 1416.480835,420.173767 
	C1446.154053,404.350830 1477.592041,393.697388 1510.468994,386.854614 
	C1532.340454,382.302368 1554.314209,378.876770 1576.645996,377.984192 
	C1594.715576,377.261932 1612.817627,375.687622 1630.856323,376.202271 
	C1669.547119,377.306183 1708.040649,380.918274 1745.581909,391.104553 
	C1780.339722,400.535614 1813.143921,414.421814 1841.837280,436.565094 
	C1875.599487,462.619965 1899.366455,496.089386 1913.999268,536.171875 
	C1921.052368,555.491699 1925.863281,575.360718 1928.760620,595.620667 
	C1930.676392,609.016052 1931.783081,622.637207 1931.870117,636.166199 
	C1932.453613,726.942749 1932.666748,817.721802 1933.000000,909.000000 
M1465.112793,870.665161 
	C1457.587402,885.760559 1454.268188,901.454956 1455.812622,918.532288 
	C1458.235229,945.322693 1471.551392,964.276123 1494.980347,976.414856 
	C1514.824463,986.696228 1536.565186,989.350403 1558.433716,989.771851 
	C1571.595459,990.025452 1584.934448,988.875610 1597.951660,986.822021 
	C1613.370850,984.389465 1628.943237,981.555237 1643.711182,976.665833 
	C1670.877563,967.671692 1694.945557,953.307739 1714.255371,931.445374 
	C1728.450073,915.374634 1738.362793,897.085571 1744.769409,876.920715 
	C1752.141724,853.716858 1754.209106,829.681396 1754.024048,805.408691 
	C1753.898438,788.938354 1754.000000,772.466187 1754.000000,755.770935 
	C1752.985596,755.926392 1752.270630,755.869812 1751.720703,756.144226 
	C1729.299683,767.332581 1705.730713,775.562012 1681.576660,781.837402 
	C1651.110962,789.752686 1620.475708,797.079773 1589.738159,803.866333 
	C1557.693726,810.941467 1525.918457,818.471863 1497.893555,836.603699 
	C1484.557861,845.231750 1473.077515,855.767456 1465.112793,870.665161 
z"/>
<path fill="#474F62" opacity="1.000000" stroke="none" 
	d="
M1972.000000,389.000000 
	C2028.664795,389.000000 2084.829834,389.055298 2140.994141,388.892578 
	C2145.376221,388.879913 2147.359131,390.117096 2148.762695,394.319824 
	C2160.541748,429.595306 2172.516846,464.805573 2184.513428,500.008026 
	C2197.948486,539.431702 2211.459717,578.829285 2224.951904,618.233459 
	C2237.908691,656.073853 2250.899658,693.902710 2263.845947,731.746643 
	C2276.899658,769.903259 2289.905762,808.076172 2302.956055,846.233948 
	C2307.418457,859.280701 2311.952393,872.302979 2316.900635,886.631897 
	C2320.384033,875.899963 2323.518311,866.403564 2326.548096,856.874023 
	C2332.302979,838.771545 2337.995117,820.648987 2343.719238,802.536621 
	C2356.313232,762.686646 2368.907715,722.836853 2381.508301,682.988953 
	C2389.277344,658.420105 2397.073975,633.859924 2404.830566,609.287170 
	C2417.062500,570.536255 2429.265625,531.776123 2441.492188,493.023376 
	C2449.294922,468.291656 2457.130127,443.570160 2464.925293,418.835907 
	C2467.605225,410.332489 2470.347412,401.844025 2472.768066,393.265991 
	C2473.625488,390.227264 2474.858154,388.932831 2478.189453,388.937531 
	C2540.187500,389.025330 2602.185303,389.001038 2664.183350,389.012726 
	C2665.161133,389.012909 2666.138672,389.168945 2667.706543,389.302582 
	C2663.992920,400.201813 2660.466553,410.845795 2656.741699,421.419983 
	C2649.385498,442.303253 2641.917480,463.147308 2634.499512,484.008881 
	C2619.719482,525.574890 2604.871826,567.117188 2590.182861,608.715271 
	C2575.658691,649.845886 2561.329590,691.045349 2546.848389,732.191162 
	C2537.523438,758.686768 2528.049805,785.130066 2518.692383,811.614380 
	C2502.729248,856.793152 2486.834717,901.996155 2470.854248,947.168701 
	C2461.651367,973.182251 2452.277100,999.135193 2443.082764,1025.151733 
	C2427.281982,1069.861328 2411.699219,1114.648560 2395.747314,1159.304077 
	C2388.468750,1179.679199 2381.062012,1200.040039 2372.752930,1220.007690 
	C2362.638428,1244.314453 2350.879639,1267.852905 2336.481689,1290.010376 
	C2324.053955,1309.136230 2309.893066,1326.808472 2293.138672,1342.268921 
	C2274.744629,1359.242432 2253.802246,1372.291748 2230.787842,1382.243896 
	C2212.325195,1390.227661 2193.172119,1395.800415 2173.535645,1399.512085 
	C2159.619385,1402.142700 2145.448486,1403.633423 2131.326904,1404.933228 
	C2084.988037,1409.197998 2038.518677,1406.084717 1992.116211,1406.984253 
	C1990.653809,1407.012695 1989.187134,1406.817017 1987.370605,1406.703857 
	C1987.370605,1351.227661 1987.370605,1296.001465 1987.370605,1240.000000 
	C1989.434326,1240.000000 1991.364624,1240.000000 1993.294922,1240.000000 
	C2022.627319,1240.000000 2051.964600,1240.322266 2081.290039,1239.873291 
	C2097.625488,1239.623169 2114.000732,1238.563843 2129.859131,1233.896851 
	C2147.598145,1228.676270 2161.254639,1217.846924 2171.961426,1203.061157 
	C2186.166748,1183.444702 2195.407959,1161.317017 2204.093994,1138.929077 
	C2207.798340,1129.380127 2211.496826,1119.821045 2214.815430,1110.135376 
	C2215.645264,1107.713379 2215.782715,1104.489624 2214.903809,1102.132080 
	C2202.725342,1069.474121 2190.351562,1036.888794 2177.949463,1004.314392 
	C2165.841553,972.512085 2153.594727,940.762573 2141.506348,908.952881 
	C2129.946289,878.533386 2118.553955,848.050171 2107.009766,817.624512 
	C2094.938232,785.808472 2082.742432,754.039551 2070.658936,722.227966 
	C2060.336182,695.051086 2050.131104,667.829407 2039.808960,640.652222 
	C2027.491455,608.221436 2015.082397,575.825500 2002.755493,543.398315 
	C1993.129639,518.076721 1983.576172,492.727631 1973.976929,467.395935 
	C1964.845459,443.299316 1955.688965,419.212158 1946.570557,395.110565 
	C1945.939575,393.443115 1945.535156,391.690002 1944.734863,389.000000 
	C1954.047119,389.000000 1962.773560,389.000000 1972.000000,389.000000 
z"/>
<path fill="#474F62" opacity="1.000000" stroke="none" 
	d="
M900.000000,1114.000000 
	C877.220947,1114.000000 854.941833,1114.000000 832.334229,1114.000000 
	C832.334229,872.187683 832.334229,630.994934 832.334229,389.401031 
	C894.036804,389.401031 955.588928,389.401031 1017.676392,389.401031 
	C1017.676392,430.824860 1017.676392,472.226868 1017.676392,513.628906 
	C1017.956665,513.668091 1018.236938,513.707336 1018.517273,513.746582 
	C1021.355347,505.945129 1024.019165,498.074890 1027.067139,490.356262 
	C1033.742676,473.451630 1043.078979,458.187592 1055.010254,444.396820 
	C1079.263550,416.363708 1110.520386,400.426056 1145.912598,392.220795 
	C1161.435791,388.621948 1177.418213,386.419128 1193.316406,385.191254 
	C1208.489380,384.019440 1223.823975,384.938629 1239.546631,384.938629 
	C1239.546631,442.931824 1239.546631,501.484772 1239.546631,560.726562 
	C1237.798828,560.812256 1235.884766,560.986328 1233.970337,560.987793 
	C1210.141846,561.006409 1186.312012,560.837402 1162.485352,561.046265 
	C1139.241943,561.250122 1116.349854,563.796082 1094.269653,571.799988 
	C1065.923706,582.075134 1046.684204,601.659912 1035.133179,629.082031 
	C1026.728394,649.034851 1022.485107,670.024841 1021.005493,691.571411 
	C1020.177307,703.630859 1019.126343,715.709595 1019.081726,727.782959 
	C1018.615662,854.043945 1018.333069,980.305542 1018.000671,1106.567017 
	C1017.995056,1108.722900 1018.000000,1110.878906 1018.000000,1114.000000 
	C978.623535,1114.000000 939.561768,1114.000000 900.000000,1114.000000 
z"/>
<path fill="#474F62" opacity="1.000000" stroke="none" 
	d="
M1695.007812,190.000000 
	C1690.223511,190.000000 1685.936890,190.000000 1681.333618,190.000000 
	C1681.333618,130.491318 1681.333618,71.603363 1681.333618,12.000000 
	C1689.994873,12.000000 1698.522095,12.761222 1706.853027,11.807101 
	C1717.237549,10.617778 1722.976807,14.554172 1728.532593,23.400639 
	C1748.480347,55.163925 1769.494263,86.257439 1790.083374,117.618385 
	C1792.398926,121.145233 1794.576538,124.762512 1797.807617,128.039566 
	C1797.807617,89.675247 1797.807617,51.310932 1797.807617,12.474815 
	C1808.882202,12.474815 1819.443848,12.474815 1830.505737,12.474815 
	C1830.505737,71.317253 1830.505737,130.319641 1830.505737,189.928284 
	C1820.122437,189.928284 1809.844360,190.054108 1799.577515,189.772995 
	C1798.257324,189.736847 1796.676758,187.797363 1795.751709,186.388382 
	C1769.538940,146.464310 1743.396240,106.494240 1717.234253,66.536819 
	C1716.458496,65.352013 1715.599121,64.222054 1713.904785,61.835457 
	C1713.904785,105.320503 1713.904785,147.346985 1713.904785,190.000000 
	C1707.404419,190.000000 1701.454956,190.000000 1695.007812,190.000000 
z"/>
<path fill="#474F62" opacity="1.000000" stroke="none" 
	d="
M2798.769775,189.996750 
	C2790.796631,189.999237 2783.278809,189.684448 2775.804932,190.121185 
	C2771.500244,190.372726 2769.214111,188.619308 2767.051514,185.282288 
	C2747.101562,154.493713 2727.051270,123.770210 2707.009033,93.041397 
	C2700.698486,83.366158 2694.324951,73.732094 2687.140137,62.801064 
	C2687.140137,105.880257 2687.140137,147.529205 2687.140137,189.586853 
	C2675.983887,189.586853 2665.423096,189.586853 2654.428711,189.586853 
	C2654.428711,130.680710 2654.428711,71.789742 2654.428711,12.000000 
	C2658.121338,12.000000 2661.870361,11.999904 2665.619629,12.000020 
	C2673.285645,12.000257 2680.953613,12.109220 2688.616455,11.948652 
	C2691.781006,11.882340 2693.674072,12.935995 2695.467041,15.694187 
	C2719.336426,52.412064 2743.354980,89.033005 2767.354492,125.666275 
	C2767.878174,126.465767 2768.613770,127.126587 2769.973633,128.676025 
	C2769.973633,89.398361 2769.973633,51.061508 2769.973633,12.365105 
	C2781.115234,12.365105 2791.675537,12.365105 2802.723145,12.365105 
	C2802.820068,14.268193 2802.988281,16.040377 2802.988770,17.812601 
	C2803.002441,73.307838 2803.007812,128.803070 2802.974365,184.298279 
	C2802.972656,186.890656 2804.089355,190.465652 2798.769775,189.996750 
z"/>
<path fill="#474F62" opacity="1.000000" stroke="none" 
	d="
M2468.236328,34.282204 
	C2483.926270,18.804247 2502.344727,10.651666 2524.083252,8.800750 
	C2540.311035,7.419028 2555.614502,9.544951 2570.542725,15.736297 
	C2585.918213,22.113197 2597.609863,32.731800 2606.292236,46.727337 
	C2616.154053,62.623775 2619.864990,80.093719 2620.150146,98.717262 
	C2620.409424,115.603073 2618.009766,131.840912 2610.448975,146.871475 
	C2597.022461,173.562408 2574.904053,188.176407 2545.374512,192.068192 
	C2526.338623,194.576950 2508.032227,192.493515 2490.802002,183.871490 
	C2471.396240,174.160645 2457.914307,158.832458 2451.064209,138.297516 
	C2441.056396,108.296593 2441.989258,78.718277 2457.001221,50.358341 
	C2459.983154,44.725254 2464.293457,39.795303 2468.236328,34.282204 
M2555.580078,157.142212 
	C2567.585449,151.821548 2574.560303,142.119736 2579.052979,130.237320 
	C2585.414551,113.411751 2585.551025,96.086296 2581.646729,78.930557 
	C2578.788330,66.372101 2572.953369,54.985794 2561.699951,47.346706 
	C2552.442139,41.062489 2542.166504,38.873257 2531.122314,38.955967 
	C2510.040039,39.113850 2492.497803,51.585835 2485.677002,71.672371 
	C2480.792236,86.056747 2479.759766,100.814415 2482.163330,115.744949 
	C2484.083008,127.669197 2488.163330,138.807083 2496.457031,147.920959 
	C2510.053955,162.862808 2535.744385,166.365219 2555.580078,157.142212 
z"/>
<path fill="#474F62" opacity="1.000000" stroke="none" 
	d="
M1334.270996,18.199108 
	C1348.383911,10.828580 1363.310791,7.861190 1378.611572,8.148480 
	C1404.765503,8.639556 1427.615112,17.467064 1444.605835,38.229008 
	C1454.308350,50.085075 1460.211670,63.963974 1462.768921,79.005241 
	C1466.018799,98.120071 1465.673218,117.226082 1459.103638,135.704330 
	C1447.360107,168.735840 1423.990356,187.490036 1389.131714,192.084076 
	C1369.533936,194.666855 1350.785889,192.296829 1333.275269,183.020264 
	C1313.249146,172.410965 1300.713379,155.616547 1293.814697,134.158279 
	C1289.529541,120.829239 1288.223633,107.214249 1289.096924,93.454529 
	C1290.972778,63.902679 1302.140015,39.096306 1327.480469,22.057314 
	C1329.531250,20.678429 1331.808350,19.636038 1334.270996,18.199108 
M1399.859863,157.569092 
	C1411.886230,150.975250 1419.906128,141.193130 1424.142578,128.075592 
	C1428.950439,113.187889 1429.224121,98.034378 1426.690308,82.892570 
	C1424.938477,72.423103 1421.223145,62.431293 1413.818970,54.337955 
	C1402.244263,41.685612 1387.391113,37.580963 1370.966797,39.165035 
	C1355.682983,40.639111 1343.356445,47.805584 1334.971069,61.059452 
	C1327.542358,72.801285 1325.314087,86.084244 1325.271240,99.463272 
	C1325.241089,108.917076 1326.769775,118.649498 1329.329956,127.772789 
	C1333.020996,140.926239 1340.854248,151.487366 1353.813965,157.387573 
	C1368.856079,164.235733 1383.979736,163.580994 1399.859863,157.569092 
z"/>
<path fill="#474F62" opacity="1.000000" stroke="none" 
	d="
M1971.845703,17.068022 
	C1994.285400,24.580011 2010.150391,38.821461 2017.722046,60.911140 
	C2021.049561,70.618500 2023.007446,81.072525 2023.752441,91.320915 
	C2024.794922,105.661362 2024.565552,120.121483 2020.037720,134.161346 
	C2013.896973,153.203293 2003.269653,168.466995 1985.175293,177.970871 
	C1971.126831,185.349792 1956.227417,188.919006 1940.386108,189.056854 
	C1917.773071,189.253601 1895.161743,189.651474 1872.549438,189.941635 
	C1871.920654,189.949692 1871.288696,189.709229 1870.346924,189.523132 
	C1870.346924,130.526978 1870.346924,71.647789 1870.346924,12.000093 
	C1872.441040,12.000093 1874.371460,12.000095 1876.301880,12.000093 
	C1898.127319,12.000063 1919.969727,11.496284 1941.770752,12.226260 
	C1951.707520,12.558985 1961.562622,15.328374 1971.845703,17.068022 
M1982.139160,133.588501 
	C1990.423706,113.091667 1990.073975,92.289925 1983.933472,71.430176 
	C1979.361206,55.897488 1968.623291,46.439583 1952.992188,43.158134 
	C1945.458618,41.576630 1937.585449,41.395157 1929.845581,41.074753 
	C1921.759155,40.740009 1913.648315,41.000000 1905.485352,41.000000 
	C1905.485352,81.042419 1905.485352,120.362091 1905.485352,159.999603 
	C1917.281372,159.999603 1928.618164,160.463379 1939.902832,159.894470 
	C1958.352539,158.964279 1973.525024,152.061584 1982.139160,133.588501 
z"/>
<path fill="#474F62" opacity="1.000000" stroke="none" 
	d="
M2080.927246,69.855743 
	C2087.874268,51.241657 2094.698486,32.993649 2101.722412,14.822800 
	C2102.199951,13.587395 2104.164062,12.153624 2105.461426,12.129382 
	C2116.784668,11.917817 2128.115723,11.898625 2139.437500,12.144749 
	C2140.833496,12.175097 2142.946045,13.816471 2143.450928,15.182622 
	C2154.380859,44.764744 2165.115723,74.418839 2175.916504,104.048737 
	C2185.755615,131.040771 2195.632568,158.019165 2205.475830,185.009766 
	C2205.975098,186.379395 2206.312744,187.808029 2206.958496,190.000000 
	C2197.618652,190.000000 2188.709229,190.000015 2179.800049,190.000000 
	C2170.194580,190.000000 2170.188477,190.002182 2166.893799,180.962814 
	C2162.595703,169.171158 2158.224609,157.404938 2154.081543,145.559036 
	C2153.161621,142.928299 2151.895752,141.936050 2149.103516,141.950531 
	C2129.947998,142.049957 2110.791016,142.073120 2091.635986,141.934494 
	C2088.481689,141.911667 2087.399902,143.295990 2086.446045,145.981445 
	C2081.258301,160.587021 2075.881836,175.125687 2070.561035,189.712921 
	C2059.046875,189.712921 2047.794312,189.712921 2035.829102,189.712921 
	C2039.886475,178.746262 2043.713867,168.239059 2047.657104,157.775406 
	C2057.031006,132.900269 2066.456299,108.044373 2075.870117,83.184235 
	C2077.507324,78.860710 2079.190186,74.554398 2080.927246,69.855743 
M2115.874512,64.377922 
	C2110.040039,80.396484 2104.205566,96.415039 2098.248535,112.770355 
	C2113.551270,112.770355 2127.982666,112.770355 2143.037109,112.770355 
	C2135.805664,92.309280 2128.716553,72.250366 2121.119385,50.754570 
	C2119.055908,56.072414 2117.588867,59.853333 2115.874512,64.377922 
z"/>
<path fill="#474F62" opacity="1.000000" stroke="none" 
	d="
M1497.000000,121.941261 
	C1497.000000,85.178268 1497.000000,48.906918 1497.000000,12.319714 
	C1508.874268,12.319714 1520.099976,12.319714 1532.000000,12.319714 
	C1532.000000,14.548838 1532.000000,16.492483 1532.000000,18.436129 
	C1532.000000,53.762024 1531.921509,89.088219 1532.055664,124.413605 
	C1532.088867,133.139816 1534.509521,141.351898 1539.282959,148.775833 
	C1545.277710,158.099106 1554.655884,161.790268 1564.900391,162.792755 
	C1576.239014,163.902328 1587.378296,162.735794 1596.897827,155.097076 
	C1603.559204,149.751755 1606.130737,142.363235 1607.829224,134.566238 
	C1608.701294,130.563080 1608.942261,126.357208 1608.952271,122.241692 
	C1609.036011,87.749161 1609.000000,53.256336 1609.000000,18.763596 
	C1609.000000,16.790245 1609.000000,14.816895 1609.000000,12.423047 
	C1620.328125,12.423047 1631.221313,12.423047 1642.698853,12.423047 
	C1642.797241,14.127645 1642.986084,15.885849 1642.986938,17.644146 
	C1643.004272,51.803612 1643.405396,85.970146 1642.811279,120.119286 
	C1642.553223,134.947479 1640.171387,149.573227 1632.194702,162.883713 
	C1623.059082,178.128418 1609.608154,187.036774 1592.839233,190.727997 
	C1576.023071,194.429626 1559.106567,194.072662 1542.286255,189.271179 
	C1519.576660,182.788574 1505.983643,167.742233 1500.193726,145.433243 
	C1498.262329,137.991425 1498.016479,130.112183 1497.000000,121.941261 
z"/>
<path fill="#474F62" opacity="1.000000" stroke="none" 
	d="
M1148.000000,80.000000 
	C1148.000000,57.219555 1148.000000,34.939110 1148.000000,12.332221 
	C1189.180908,12.332221 1229.738281,12.332221 1270.647949,12.332221 
	C1270.647949,22.142090 1270.647949,31.702208 1270.647949,41.890190 
	C1241.560181,41.890190 1212.662598,41.890190 1183.386230,41.890190 
	C1183.386230,57.404789 1183.386230,72.298195 1183.386230,87.821457 
	C1205.035522,87.821457 1226.600952,87.821457 1248.579956,87.821457 
	C1248.579956,97.999664 1248.579956,107.561752 1248.579956,117.754974 
	C1227.033081,117.754974 1205.466309,117.754974 1183.280029,117.754974 
	C1183.280029,141.932495 1183.280029,165.498108 1183.280029,189.529083 
	C1171.437866,189.529083 1160.210327,189.529083 1148.000000,189.529083 
	C1148.000000,153.292572 1148.000000,116.896286 1148.000000,80.000000 
z"/>
<path fill="#474F62" opacity="1.000000" stroke="none" 
	d="
M2336.859375,12.000120 
	C2338.969727,12.000207 2340.599609,12.000207 2342.613281,12.000207 
	C2342.613281,22.070793 2342.613281,31.630564 2342.613281,41.819302 
	C2324.968750,41.819302 2307.400879,41.819302 2289.224365,41.819302 
	C2289.224365,91.328384 2289.224365,140.218933 2289.224365,189.553101 
	C2277.387451,189.553101 2266.160156,189.553101 2254.304932,189.553101 
	C2254.304932,140.758698 2254.304932,91.869667 2254.304932,42.178589 
	C2236.019531,42.178589 2218.333740,42.178589 2200.331055,42.178589 
	C2200.331055,31.815451 2200.331055,22.256001 2200.331055,12.000033 
	C2245.852295,12.000033 2291.115479,12.000033 2336.859375,12.000120 
z"/>
<path fill="#474F62" opacity="1.000000" stroke="none" 
	d="
M2375.000000,73.000000 
	C2375.000000,52.562172 2375.000000,32.624340 2375.000000,12.346189 
	C2386.814697,12.346189 2398.035889,12.346189 2409.629639,12.346189 
	C2409.629639,71.407310 2409.629639,130.268616 2409.629639,189.565338 
	C2398.367188,189.565338 2387.144775,189.565338 2375.000000,189.565338 
	C2375.000000,150.924530 2375.000000,112.212265 2375.000000,73.000000 
z"/>
<path fill="#000000" opacity="1.000000" stroke="none" 
	d="
M602.936279,1270.826294 
	C596.019958,1289.791382 582.900330,1303.012329 566.456543,1313.161865 
	C540.727173,1329.042725 512.266113,1337.371826 482.674927,1341.938232 
	C465.727448,1344.553589 448.649811,1346.722168 431.548889,1347.845459 
	C410.357269,1349.237427 389.060211,1350.232544 367.846985,1349.742188 
	C347.221069,1349.265503 326.618896,1346.951782 306.050781,1344.980347 
	C278.667114,1342.355835 251.954330,1336.480469 226.050964,1327.107788 
	C208.323273,1320.693359 191.714798,1312.200684 177.850861,1299.248169 
	C159.471619,1282.077026 153.938522,1260.981934 160.197891,1236.747192 
	C165.304550,1216.975220 177.142883,1201.918823 193.280609,1189.883789 
	C216.743057,1172.386353 243.891174,1163.790894 271.879974,1157.218628 
	C273.310913,1156.882568 274.862640,1157.007935 276.358124,1157.007690 
	C332.021790,1156.998657 387.696198,1156.366333 443.343781,1157.312622 
	C465.543396,1157.690186 487.718781,1161.266113 509.840149,1163.927002 
	C528.340088,1166.152222 546.005371,1171.691528 562.713806,1179.955811 
	C577.090698,1187.066895 589.257202,1196.950317 597.315979,1211.027954 
	C602.443115,1219.984497 604.944580,1229.863892 606.136902,1240.219360 
	C607.336365,1250.636597 606.199890,1260.585815 602.936279,1270.826294 
z"/>
<path fill="#CDCCCA" opacity="1.000000" stroke="none" 
	d="
M316.013977,520.972229 
	C334.530640,515.517639 352.947815,514.984680 371.644623,516.912720 
	C403.778503,520.226501 431.011810,533.610779 453.535706,556.472534 
	C473.304047,576.537476 485.466614,600.828308 489.422760,628.623779 
	C495.132721,668.741394 488.638885,706.297852 462.278900,738.603333 
	C440.441254,765.366455 411.822693,780.581848 377.967377,785.776428 
	C366.736969,787.499512 355.065857,788.818604 343.850525,787.721863 
	C305.947021,784.015198 273.459839,768.816895 248.935364,738.812805 
	C231.672333,717.692444 222.239868,693.330322 219.930145,666.198853 
	C216.215424,622.563293 229.367447,584.852600 260.246490,553.700012 
	C275.767883,538.041077 294.501556,527.427246 316.013977,520.972229 
z"/>
<path fill="#000000" opacity="1.000000" stroke="none" 
	d="
M1465.299561,870.342346 
	C1473.077515,855.767456 1484.557861,845.231750 1497.893555,836.603699 
	C1525.918457,818.471863 1557.693726,810.941467 1589.738159,803.866333 
	C1620.475708,797.079773 1651.110962,789.752686 1681.576660,781.837402 
	C1705.730713,775.562012 1729.299683,767.332581 1751.720703,756.144226 
	C1752.270630,755.869812 1752.985596,755.926392 1754.000000,755.770935 
	C1754.000000,772.466187 1753.898438,788.938354 1754.024048,805.408691 
	C1754.209106,829.681396 1752.141724,853.716858 1744.769409,876.920715 
	C1738.362793,897.085571 1728.450073,915.374634 1714.255371,931.445374 
	C1694.945557,953.307739 1670.877563,967.671692 1643.711182,976.665833 
	C1628.943237,981.555237 1613.370850,984.389465 1597.951660,986.822021 
	C1584.934448,988.875610 1571.595459,990.025452 1558.433716,989.771851 
	C1536.565186,989.350403 1514.824463,986.696228 1494.980347,976.414856 
	C1471.551392,964.276123 1458.235229,945.322693 1455.812622,918.532288 
	C1454.268188,901.454956 1457.587402,885.760559 1465.299561,870.342346 
z"/>
<path fill="#000000" opacity="1.000000" stroke="none" 
	d="
M2555.257324,157.343506 
	C2535.744385,166.365219 2510.053955,162.862808 2496.457031,147.920959 
	C2488.163330,138.807083 2484.083008,127.669197 2482.163330,115.744949 
	C2479.759766,100.814415 2480.792236,86.056747 2485.677002,71.672371 
	C2492.497803,51.585835 2510.040039,39.113850 2531.122314,38.955967 
	C2542.166504,38.873257 2552.442139,41.062489 2561.699951,47.346706 
	C2572.953369,54.985794 2578.788330,66.372101 2581.646729,78.930557 
	C2585.551025,96.086296 2585.414551,113.411751 2579.052979,130.237320 
	C2574.560303,142.119736 2567.585449,151.821548 2555.257324,157.343506 
z"/>
<path fill="#000000" opacity="1.000000" stroke="none" 
	d="
M1399.508423,157.721558 
	C1383.979736,163.580994 1368.856079,164.235733 1353.813965,157.387573 
	C1340.854248,151.487366 1333.020996,140.926239 1329.329956,127.772789 
	C1326.769775,118.649498 1325.241089,108.917076 1325.271240,99.463272 
	C1325.314087,86.084244 1327.542358,72.801285 1334.971069,61.059452 
	C1343.356445,47.805584 1355.682983,40.639111 1370.966797,39.165035 
	C1387.391113,37.580963 1402.244263,41.685612 1413.818970,54.337955 
	C1421.223145,62.431293 1424.938477,72.423103 1426.690308,82.892570 
	C1429.224121,98.034378 1428.950439,113.187889 1424.142578,128.075592 
	C1419.906128,141.193130 1411.886230,150.975250 1399.508423,157.721558 
z"/>
<path fill="#000000" opacity="1.000000" stroke="none" 
	d="
M1982.017578,133.946747 
	C1973.525024,152.061584 1958.352539,158.964279 1939.902832,159.894470 
	C1928.618164,160.463379 1917.281372,159.999603 1905.485352,159.999603 
	C1905.485352,120.362091 1905.485352,81.042419 1905.485352,41.000000 
	C1913.648315,41.000000 1921.759155,40.740009 1929.845581,41.074753 
	C1937.585449,41.395157 1945.458618,41.576630 1952.992188,43.158134 
	C1968.623291,46.439583 1979.361206,55.897488 1983.933472,71.430176 
	C1990.073975,92.289925 1990.423706,113.091667 1982.017578,133.946747 
z"/>
<path fill="#000000" opacity="1.000000" stroke="none" 
	d="
M2115.998047,64.006088 
	C2117.588867,59.853333 2119.055908,56.072414 2121.119385,50.754570 
	C2128.716553,72.250366 2135.805664,92.309280 2143.037109,112.770355 
	C2127.982666,112.770355 2113.551270,112.770355 2098.248535,112.770355 
	C2104.205566,96.415039 2110.040039,80.396484 2115.998047,64.006088 
z"/>
</svg>